<svg xmlns="http://www.w3.org/2000/svg" viewBox="0 0 32 32" fill="none">
  <path 
    d="M28 16C28 22.6274 22.6274 28 16 28C9.37258 28 4 22.6274 4 16C4 9.37258 9.37258 4 16 4C19.3137 4 22.2964 5.34315 24.4853 7.51472" 
    stroke="url(#logo-grad-outer)" 
    stroke-width="3.5" 
    stroke-linecap="round"
  />
  <path 
    d="M20 16C20 18.2091 18.2091 20 16 20C13.7909 20 12 18.2091 12 16C12 13.7909 13.7909 12 16 12C18.2091 12 20 13.7909 20 16Z" 
    stroke="url(#logo-grad-inner)" 
    stroke-width="3" 
    stroke-linecap="round"
  />
  <circle cx="16" cy="16" r="3.5" fill="#14B8A6"/>
  <defs>
    <linearGradient id="logo-grad-outer" x1="4" y1="4" x2="28" y2="28" gradientUnits="userSpaceOnUse">
      <stop stop-color="#6366F1" />
      <stop offset="0.5" stop-color="#3B82F6" />
      <stop offset="1" stop-color="#14B8A6" />
    </linearGradient>
    <linearGradient id="logo-grad-inner" x1="12" y1="12" x2="20" y2="20" gradientUnits="userSpaceOnUse">
      <stop stop-color="#14B8A6" />
      <stop offset="1" stop-color="#6366F1" />
    </linearGradient>
  </defs>
</svg>